# xmcd
#
# Track frame offsets: 
#        150
#        19060
#        34277
#        52073
#        67771
#        82986
#        110998
#        129156
#        141806
#        160106
#        174551
#        193178
#        211203
#        231228
#
# Disc length: 3336 seconds
#
# Revision: 0
# Processed by: cddbd v1.5.2PL0 Copyright (c) Steve Scherf et al.
# Submitted via: ExactAudioCopy v1.0b4
#
DISCID=c10d060e
DTITLE=Johnny Winter - I'm a Bluesman
DYEAR=2004
DGENRE=Blues
TTITLE0=I'm a Bluesman
TTITLE1=Cheatin' Blues
TTITLE2=I Smell Smoke
TTITLE3=Lone Wolf
TTITLE4=So Much Love
TTITLE5=The Monkey Song
TTITLE6=Shake Down
TTITLE7=Sweet Little Baby
TTITLE8=Pack Your Bags
TTITLE9=Last Night
TTITLE10=That Wouldn't Satisfy
TTITLE11=Sugar Coated Love
TTITLE12=Let's Start All Over Again
TTITLE13=Headed For Hard Times
EXTD=
EXTT0=
EXTT1=
EXTT2=
EXTT3=
EXTT4=
EXTT5=
EXTT6=
EXTT7=
EXTT8=
EXTT9=
EXTT10=
EXTT11=
EXTT12=
EXTT13=
PLAYORDER=
